<svg xmlns="http://www.w3.org/2000/svg" viewBox="0 0 512 512">
  <path fill="#ff4405" d="M390.907 139.395h-65.17a42.81 42.81 0 0 0-42.66-40.24h-50.493a42.805 42.805 0 0 0-42.66 40.24h-67.235a43.224 43.224 0 0 0-43.225 43.225v186.2a43.224 43.224 0 0 0 43.225 43.224h268.222a43.224 43.224 0 0 0 43.225-43.225v-186.2a43.23 43.23 0 0 0-43.23-43.224zm-158.323-20.29h50.497a22.866 22.866 0 0 1 22.683 20.29h-95.866a22.865 22.865 0 0 1 22.686-20.29zm105.04 104.389-30.381 28.426 27.371 91.45-15.337 15.332a4.299 4.299 0 0 1-6.085 0l-40.815-74.168-37.54 37.021 5.99 29.17-9.563 9.553a3.238 3.238 0 0 1-4.589.007l-54.064-54.065a3.235 3.235 0 0 1 0-4.585l9.559-9.566 28.638 5.845 37.037-37.679-73.648-40.534a4.31 4.31 0 0 1-.007-6.089l15.338-15.331 90.842 27.195 28.632-30.607c8.36-8.365 21.546-8.738 29.45-.828 7.9 7.897 7.538 21.087-.828 29.453z" data-name="Baggage03"/>
</svg>
